<?xml version="1.0" standalone="no"?>
<!DOCTYPE svg PUBLIC "-//W3C//DTD SVG 20010904//EN"
 "http://www.w3.org/TR/2001/REC-SVG-20010904/DTD/svg10.dtd">
<svg version="1.0" xmlns="http://www.w3.org/2000/svg"
 width="512.000000pt" height="512.000000pt" viewBox="0 0 512.000000 512.000000"
 preserveAspectRatio="xMidYMid meet">
<metadata>
Created by potrace 1.14, written by Peter Selinger 2001-2017
</metadata>
<g transform="translate(0.000000,512.000000) scale(0.100000,-0.100000)"
fill="#000000" stroke="none">
<path d="M1779 4529 c-36 -18 -89 -72 -89 -90 0 -4 -13 -37 -29 -71 -16 -35
-92 -209 -171 -388 -78 -178 -150 -343 -160 -365 -10 -22 -24 -55 -31 -72 -8
-18 -17 -33 -20 -33 -3 0 -21 10 -40 23 -19 12 -108 69 -197 127 -150 95 -168
103 -212 103 -37 0 -57 -6 -83 -26 -27 -21 -104 -140 -181 -282 -6 -11 -19
-31 -27 -45 -9 -14 -72 -122 -139 -240 -68 -118 -127 -219 -131 -224 -7 -8
-77 44 -183 135 -11 10 -34 29 -51 43 l-30 26 -3 -47 c-2 -26 -1 -56 3 -67 3
-12 50 -57 105 -101 98 -79 109 -92 91 -111 -5 -5 -22 -31 -37 -59 -15 -27
-58 -91 -96 -141 l-68 -92 0 -163 c0 -106 3 -160 10 -153 8 8 113 187 178 304
13 25 28 50 32 55 4 6 17 27 29 47 11 20 103 180 204 355 102 175 195 337 208
359 148 258 165 284 179 278 27 -10 380 -239 380 -246 0 -7 -53 -130 -74 -168
-7 -14 -203 -353 -435 -755 -233 -401 -434 -750 -448 -775 -14 -25 -29 -49
-33 -55 -4 -5 -19 -30 -32 -55 -14 -25 -64 -112 -112 -194 l-87 -149 3 -138 3
-139 290 501 c159 276 295 509 302 518 10 13 -97 -239 -172 -404 -7 -16 -38
-86 -68 -155 -151 -343 -153 -350 -118 -425 10 -22 29 -50 42 -62 13 -12 132
-72 264 -133 132 -62 278 -130 325 -152 106 -50 162 -58 216 -30 51 26 68 46
100 117 14 33 34 78 44 100 10 22 88 202 175 400 86 198 161 364 165 368 8 9
69 9 1252 8 l727 -1 7 -22 c4 -13 21 -54 39 -93 18 -38 106 -238 196 -443 89
-205 173 -384 186 -397 61 -60 133 -68 228 -25 61 27 301 139 449 209 59 28
111 51 114 51 20 0 87 60 103 92 39 77 30 125 -64 328 -34 75 -217 491 -217
494 0 2 -18 43 -41 91 -22 48 -38 90 -35 92 3 3 9 -3 13 -13 4 -10 24 -47 45
-82 21 -34 38 -64 38 -66 0 -2 37 -66 81 -142 45 -76 94 -160 108 -185 14 -25
91 -158 171 -296 l145 -250 3 139 3 139 -37 62 c-46 77 -247 426 -282 487 -13
25 -28 50 -32 55 -4 6 -17 26 -28 46 -11 19 -54 95 -97 169 -43 74 -85 148
-95 164 -9 17 -84 146 -165 286 -338 582 -411 710 -451 799 l-43 95 65 40 c35
23 122 78 194 124 71 46 135 80 140 77 6 -4 15 -17 21 -28 5 -12 13 -29 19
-37 5 -8 32 -53 59 -100 101 -174 304 -526 324 -560 69 -122 183 -320 199
-345 10 -16 61 -104 113 -195 l95 -165 0 171 0 171 -64 85 c-74 98 -146 212
-146 232 0 7 37 44 82 82 46 38 93 78 105 88 19 16 23 30 23 78 0 61 -3 66
-25 46 -7 -7 -32 -29 -55 -47 -23 -19 -48 -40 -54 -45 -6 -6 -37 -33 -69 -60
-49 -41 -61 -47 -71 -35 -11 12 -209 352 -400 686 -54 94 -94 125 -160 127
-44 0 -115 -39 -365 -203 -78 -51 -84 -53 -94 -35 -10 17 -53 113 -239 539
-34 77 -73 167 -88 200 -15 33 -40 91 -56 129 -61 144 -156 187 -279 128 -22
-11 -168 -79 -324 -152 l-284 -131 -86 39 c-191 89 -263 123 -411 192 -172 82
-219 91 -281 59z m182 -223 c52 -24 139 -65 194 -91 55 -25 141 -65 190 -88
50 -22 94 -44 98 -48 7 -6 -69 -194 -143 -354 -11 -22 -184 -415 -385 -874
-201 -459 -374 -852 -384 -875 -10 -23 -41 -93 -69 -156 -27 -63 -84 -194
-127 -290 -42 -96 -83 -190 -91 -207 -57 -132 -153 -350 -181 -413 -14 -30
-32 -72 -40 -92 -8 -21 -19 -38 -23 -38 -4 0 -65 27 -136 61 -140 66 -219 103
-360 168 l-91 43 79 181 c44 100 86 196 93 212 16 34 700 1593 917 2090 77
176 153 348 169 383 16 35 29 65 29 67 0 3 13 33 28 67 16 35 53 116 82 181
29 64 54 117 55 117 1 0 45 -20 96 -44z m1353 -93 c33 -76 77 -175 98 -220 21
-46 38 -85 38 -87 0 -3 13 -33 29 -68 16 -35 100 -225 186 -423 87 -198 171
-389 187 -425 17 -36 38 -85 48 -110 10 -25 29 -70 43 -100 14 -30 60 -134
102 -230 43 -96 85 -193 95 -215 10 -22 32 -74 50 -115 18 -41 43 -97 55 -125
12 -27 84 -192 160 -365 76 -173 148 -337 160 -365 13 -27 37 -84 55 -125 18
-41 43 -98 56 -127 13 -28 24 -54 24 -57 0 -5 -186 -96 -195 -96 -1 0 -61 -28
-131 -61 -225 -107 -257 -120 -264 -112 -5 4 -22 40 -38 78 -17 39 -67 153
-112 255 -45 102 -109 248 -142 325 -33 77 -65 149 -71 160 -6 11 -12 25 -13
30 -2 8 -215 493 -259 590 -23 52 -204 463 -271 618 -36 81 -76 173 -90 205
-14 31 -31 71 -39 87 -7 17 -46 104 -85 195 -40 91 -80 183 -90 205 -10 22
-50 114 -90 205 -74 171 -93 214 -128 290 l-20 45 106 51 c59 27 139 65 177
83 39 17 122 56 185 86 63 30 117 54 120 54 3 1 32 -61 64 -136z m-671 -568
c92 -208 287 -654 454 -1035 68 -157 130 -298 138 -315 62 -137 202 -455 214
-488 l11 -27 -900 1 c-499 0 -900 4 -900 9 0 5 13 37 29 72 16 35 77 173 136
308 106 243 125 286 171 388 13 29 24 54 24 57 0 2 13 32 29 67 16 35 75 169
131 298 56 129 115 263 131 298 16 35 29 65 29 67 0 3 13 33 29 67 33 73 128
288 161 366 13 29 26 49 31 45 4 -4 41 -84 82 -178z"/>
</g>
</svg>
